# xmcd
# 
# Track frame offsets:
#     150
#     13098
#     36836
#     49330
#     56577
#     68797
#     80979
#     99439
#     114349
#     125465
#     137279
#     144449
# 
# Disc length: 2151
# 
# Revision: 2
# Processed by: cddbd v1.5.2PL0 Copyright (c) Steve Scherf et al.
# Submitted via: fre:ac v1.0.31
# 
DISCID=a408650c
DTITLE=Neko Case - Fox Confessor Brings The Flood
DYEAR=2006
DGENRE=Country
TTITLE0=Margaret vs. Pauline
TTITLE1=Star Witness
TTITLE2=Hold On, Hold On
TTITLE3=A Widow's Toast
TTITLE4=That Teenage Feeling
TTITLE5=Fox Confessor Brings The Flood
TTITLE6=John Saw That Number
TTITLE7=Dirty Knife
TTITLE8=Lion's Jaws
TTITLE9=Maybe Sparrow
TTITLE10=At Last
TTITLE11=The Needle Has Landed
EXTD=
EXTT0=
EXTT1=
EXTT2=
EXTT3=
EXTT4=
EXTT5=
EXTT6=
EXTT7=
EXTT8=
EXTT9=
EXTT10=
EXTT11=
PLAYORDER=
